<?xml version="1.0" standalone="no"?>
<!DOCTYPE svg PUBLIC "-//W3C//DTD SVG 20010904//EN"
 "http://www.w3.org/TR/2001/REC-SVG-20010904/DTD/svg10.dtd">
<svg version="1.0" xmlns="http://www.w3.org/2000/svg"
 width="237.000000pt" height="237.000000pt" viewBox="0 0 237.000000 237.000000"
 preserveAspectRatio="xMidYMid meet">
<metadata>
Created by potrace 1.14, written by Peter Selinger 2001-2017
</metadata>
<g transform="translate(0.000000,237.000000) scale(0.100000,-0.100000)"
fill="#000000" stroke="none">
<path d="M947 1894 c-4 -4 -7 -51 -7 -105 l0 -98 83 38 c45 21 95 43 110 49
26 11 28 15 25 65 l-3 52 -101 3 c-55 1 -103 0 -107 -4z"/>
<path d="M1326 1784 c-306 -57 -613 -247 -710 -438 -33 -66 -32 -79 18 -192
32 -72 35 -76 36 -44 1 122 169 291 404 406 60 30 116 54 124 54 13 0 14 -52
10 -420 l-5 -420 108 0 109 0 0 449 c0 400 2 450 16 455 25 10 156 7 196 -4
21 -6 51 -23 68 -37 l32 -26 -15 34 c-65 151 -69 158 -106 175 -48 24 -183 28
-285 8z"/>
<path d="M1615 1554 c-10 -19 -49 -65 -87 -102 l-68 -67 0 -92 c0 -51 3 -93 8
-93 12 0 82 49 140 98 71 61 106 121 106 185 0 43 -4 53 -32 78 -18 16 -36 29
-40 29 -4 0 -16 -16 -27 -36z"/>
<path d="M1045 1457 l-100 -52 -3 -338 -2 -337 110 0 110 0 0 390 c0 215 -3
390 -7 390 -5 0 -53 -24 -108 -53z"/>
<path d="M714 1124 c-8 -44 14 -96 50 -119 14 -9 52 -19 86 -22 l60 -6 0 82
c0 57 -4 83 -12 85 -7 3 -50 7 -95 10 l-82 5 -7 -35z"/>
<path d="M586 583 c-3 -3 -6 -42 -6 -85 0 -63 3 -78 15 -78 12 0 15 15 15 79
0 74 -7 100 -24 84z"/>
<path d="M865 581 c-6 -10 -55 -150 -55 -158 0 -2 6 -3 14 -3 8 0 17 11 20 25
5 19 13 25 35 25 22 0 30 -6 35 -25 4 -14 13 -25 21 -25 11 0 8 18 -14 82 -26
79 -42 101 -56 79z m18 -89 c-20 -5 -22 -1 -15 33 l5 30 13 -30 c10 -25 10
-31 -3 -33z"/>
<path d="M1270 562 c0 -24 -4 -27 -32 -27 -24 0 -36 -6 -47 -26 -27 -47 13
-113 57 -93 9 4 25 6 35 5 15 -2 17 8 17 83 0 70 -3 86 -15 86 -10 0 -15 -10
-15 -28z m-5 -82 c0 -31 -3 -35 -25 -35 -19 0 -26 6 -28 23 -5 36 5 54 30 50
19 -2 23 -9 23 -38z"/>
<path d="M620 570 c0 -5 11 -10 25 -10 24 0 25 -2 25 -70 0 -56 3 -70 15 -70
12 0 15 14 15 70 0 68 1 70 25 70 14 0 25 5 25 10 0 6 -28 10 -65 10 -37 0
-65 -4 -65 -10z"/>
<path d="M977 522 c-26 -28 -22 -78 8 -98 14 -9 32 -13 45 -9 30 9 24 25 -9
25 -35 0 -48 27 -31 61 9 15 19 20 36 16 16 -3 24 0 24 9 0 21 -54 17 -73 -4z"/>
<path d="M1075 530 c-7 -11 -1 -13 33 -10 30 2 28 -18 -3 -26 -14 -3 -30 -14
-35 -24 -19 -35 13 -69 48 -51 9 4 23 6 30 4 16 -6 17 88 0 105 -15 15 -64 16
-73 2z m55 -70 c0 -13 -7 -20 -20 -20 -25 0 -27 27 -2 33 9 3 18 5 20 6 1 0 2
-8 2 -19z"/>
<path d="M1336 524 c-9 -8 -16 -31 -16 -49 0 -42 34 -69 74 -59 37 9 32 24 -8
24 -21 0 -36 6 -40 15 -4 12 4 15 39 15 49 0 56 10 29 48 -18 26 -56 29 -78 6z
m62 -21 c2 -9 -7 -13 -28 -13 -28 0 -31 2 -20 15 15 18 41 16 48 -2z"/>
<path d="M1450 479 c0 -33 4 -59 10 -59 6 0 10 17 10 39 0 39 20 68 40 56 5
-3 10 -26 10 -51 0 -32 4 -44 14 -44 11 0 16 14 18 48 2 34 7 47 18 47 11 0
16 -13 18 -47 2 -34 7 -48 18 -48 18 0 20 93 2 108 -7 5 -46 10 -85 9 l-73 0
0 -58z"/>
<path d="M1635 523 c39 -98 40 -101 20 -123 -20 -22 -15 -36 10 -26 29 11 90
166 66 166 -6 0 -16 -12 -22 -27 -5 -16 -12 -35 -15 -43 -4 -10 -11 0 -21 28
-9 24 -21 42 -30 42 -10 0 -13 -5 -8 -17z"/>
<path d="M737 494 c-12 -12 4 -24 34 -24 19 0 29 5 29 15 0 15 -50 22 -63 9z"/>
</g>
</svg>
